<svg width="12" height="12" viewBox="0 0 12 12" fill="none" xmlns="http://www.w3.org/2000/svg">
<path d="M6.49992 0.500066C6.49992 0.367458 6.5526 0.240281 6.64637 0.146513C6.74014 0.0527445 6.86732 6.60621e-05 6.99992 6.60621e-05C8.32556 0.00152186 9.59648 0.528774 10.5338 1.46614C11.4712 2.40351 11.9985 3.67443 11.9999 5.00007C11.9999 5.13268 11.9472 5.25985 11.8535 5.35362C11.7597 5.44739 11.6325 5.50007 11.4999 5.50007C11.3673 5.50007 11.2401 5.44739 11.1464 5.35362C11.0526 5.25985 10.9999 5.13268 10.9999 5.00007C10.9987 3.93957 10.5769 2.92284 9.82703 2.17295C9.07714 1.42307 8.06042 1.00126 6.99992 1.00007C6.86732 1.00007 6.74014 0.947388 6.64637 0.85362C6.5526 0.759851 6.49992 0.632674 6.49992 0.500066ZM6.99992 3.00007C7.53036 3.00007 8.03906 3.21078 8.41413 3.58585C8.78921 3.96093 8.99992 4.46963 8.99992 5.00007C8.99992 5.13268 9.0526 5.25985 9.14637 5.35362C9.24014 5.44739 9.36731 5.50007 9.49992 5.50007C9.63253 5.50007 9.75971 5.44739 9.85347 5.35362C9.94724 5.25985 9.99992 5.13268 9.99992 5.00007C9.99913 4.20466 9.6828 3.44206 9.12036 2.87962C8.55793 2.31719 7.79533 2.00086 6.99992 2.00007C6.86732 2.00007 6.74014 2.05274 6.64637 2.14651C6.5526 2.24028 6.49992 2.36746 6.49992 2.50007C6.49992 2.63267 6.5526 2.75985 6.64637 2.85362C6.74014 2.94739 6.86732 3.00007 6.99992 3.00007ZM11.5464 8.36957C11.8362 8.66012 11.9989 9.05372 11.9989 9.46407C11.9989 9.87441 11.8362 10.268 11.5464 10.5586L11.0914 11.0831C6.99642 15.0036 -2.96856 5.04107 0.891431 0.933066L1.46643 0.433066C1.75731 0.151405 2.14739 -0.0044094 2.55228 -0.000666517C2.95717 0.00307636 3.3443 0.166075 3.62993 0.453066C3.64543 0.468566 4.57193 1.67207 4.57193 1.67207C4.84684 1.96088 4.99988 2.34453 4.99923 2.74327C4.99857 3.142 4.84428 3.52515 4.56843 3.81307L3.98943 4.54107C4.30985 5.31962 4.78096 6.02719 5.37568 6.62311C5.9704 7.21904 6.67702 7.69157 7.45492 8.01357L8.18742 7.43107C8.47537 7.15542 8.85845 7.00131 9.25707 7.00076C9.65569 7.0002 10.0392 7.15323 10.3279 7.42807C10.3279 7.42807 11.5309 8.35407 11.5464 8.36957ZM10.8584 9.09657C10.8584 9.09657 9.66192 8.17607 9.64642 8.16057C9.54341 8.05843 9.40423 8.00113 9.25917 8.00113C9.11411 8.00113 8.97493 8.05843 8.87192 8.16057C8.85842 8.17457 7.84992 8.97807 7.84992 8.97807C7.78196 9.03216 7.70108 9.06762 7.61525 9.08095C7.52941 9.09427 7.44159 9.08501 7.36042 9.05407C6.35265 8.67885 5.43729 8.09144 4.67634 7.33161C3.91539 6.57178 3.32663 5.65728 2.94993 4.65007C2.91653 4.56779 2.90564 4.47811 2.91838 4.39024C2.93112 4.30236 2.96704 4.21946 3.02243 4.15007C3.02243 4.15007 3.82593 3.14107 3.83943 3.12807C3.94156 3.02506 3.99887 2.88587 3.99887 2.74082C3.99887 2.59576 3.94156 2.45657 3.83943 2.35357C3.82393 2.33857 2.90343 1.14107 2.90343 1.14107C2.79888 1.04732 2.66243 0.997114 2.52205 1.00074C2.38168 1.00437 2.248 1.06155 2.14843 1.16057L1.57343 1.66057C-1.24757 5.05257 7.38792 13.2091 10.3604 10.4001L10.8159 9.87507C10.9227 9.7762 10.9868 9.6397 10.9947 9.49442C11.0026 9.34914 10.9538 9.20647 10.8584 9.09657Z" fill="#374957"/>
</svg>
